<svg width="18" height="18" viewBox="0 0 18 18" fill="none" xmlns="http://www.w3.org/2000/svg">
<path d="M5.25 1.89474C4.75272 1.89474 4.27581 2.09436 3.92417 2.44969C3.57254 2.80502 3.375 3.28696 3.375 3.78947V8.56231L14.625 8.54053V3.78947C14.625 3.28696 14.4275 2.80502 14.0758 2.44969C13.7242 2.09436 13.2473 1.89474 12.75 1.89474H5.25ZM12.4378 16.1053L11.8125 15.1579H6.1875L5.56219 16.1053H5.25C4.25544 16.1053 3.30161 15.706 2.59835 14.9953C1.89509 14.2847 1.5 13.3208 1.5 12.3158V3.78947C1.5 2.78444 1.89509 1.82058 2.59835 1.10991C3.30161 0.399247 4.25544 0 5.25 0H12.75C13.7446 0 14.6984 0.399247 15.4016 1.10991C16.1049 1.82058 16.5 2.78444 16.5 3.78947V12.3158C16.5 13.3208 16.1049 14.2847 15.4016 14.9953C14.6984 15.706 13.7446 16.1053 12.75 16.1053H12.4378ZM5.25 13.2632C5.49864 13.2632 5.7371 13.1633 5.91291 12.9857C6.08873 12.808 6.1875 12.567 6.1875 12.3158C6.1875 12.0645 6.08873 11.8236 5.91291 11.6459C5.7371 11.4682 5.49864 11.3684 5.25 11.3684C5.00136 11.3684 4.7629 11.4682 4.58709 11.6459C4.41127 11.8236 4.3125 12.0645 4.3125 12.3158C4.3125 12.567 4.41127 12.808 4.58709 12.9857C4.7629 13.1633 5.00136 13.2632 5.25 13.2632ZM12.75 13.2632C12.9986 13.2632 13.2371 13.1633 13.4129 12.9857C13.5887 12.808 13.6875 12.567 13.6875 12.3158C13.6875 12.0645 13.5887 11.8236 13.4129 11.6459C13.2371 11.4682 12.9986 11.3684 12.75 11.3684C12.5014 11.3684 12.2629 11.4682 12.0871 11.6459C11.9113 11.8236 11.8125 12.0645 11.8125 12.3158C11.8125 12.567 11.9113 12.808 12.0871 12.9857C12.2629 13.1633 12.5014 13.2632 12.75 13.2632ZM12.75 2.8421C12.9986 2.8421 13.2371 2.94192 13.4129 3.11958C13.5887 3.29725 13.6875 3.53822 13.6875 3.78947V6.63158C13.6875 6.88284 13.5887 7.1238 13.4129 7.30147C13.2371 7.47913 12.9986 7.57895 12.75 7.57895C12.5014 7.57895 12.2629 7.47913 12.0871 7.30147C11.9113 7.1238 11.8125 6.88284 11.8125 6.63158V3.78947C11.8125 3.53822 11.9113 3.29725 12.0871 3.11958C12.2629 2.94192 12.5014 2.8421 12.75 2.8421ZM5.54437 16.1327L12.4547 16.1318L12.7162 16.5268C12.8105 16.6696 12.8647 16.8357 12.8728 17.0071C12.881 17.1786 12.8429 17.3491 12.7626 17.5004C12.6823 17.6517 12.5628 17.7781 12.4169 17.8661C12.2711 17.9541 12.1043 18.0004 11.9344 18H6.06562C5.89582 18.0002 5.72915 17.9538 5.58341 17.8657C5.43767 17.7777 5.31834 17.6512 5.23815 17.5C5.15797 17.3487 5.11994 17.1783 5.12814 17.0069C5.13634 16.8355 5.19044 16.6696 5.28469 16.5268L5.54531 16.1327H5.54437Z" fill="#1FB588"/>
</svg>
