<svg width="14" height="18" viewBox="0 0 14 18" fill="none" xmlns="http://www.w3.org/2000/svg">
<path d="M13.1178 12.3896C13.5494 11.9551 13.4981 9.6754 13.4981 9.6754C13.4981 8.28367 13.0834 3.16699 12.4961 2.05297C11.9081 0.939579 8.62439 0 7.00003 0C5.37567 0 2.09066 0.939579 1.50397 2.05297C0.916643 3.16762 0.501952 8.2824 0.501952 9.67414C0.501952 9.67414 0.450038 11.9538 0.881617 12.3896C1.16621 12.6761 2.26079 13.3846 3.17274 13.9155L0.830953 17.9994H2.2758L2.69675 17.2657H11.3021L11.723 18H13.1691L10.8273 13.9161C11.7393 13.3859 12.8339 12.6768 13.1184 12.3902L13.1178 12.3896ZM11.8919 9.50096C11.7858 9.50134 11.682 9.47 11.5936 9.41093C11.5052 9.35185 11.4362 9.2677 11.3953 9.16911C11.3545 9.07053 11.3436 8.96196 11.364 8.85715C11.3845 8.75233 11.4354 8.65599 11.5103 8.58032C11.5852 8.50466 11.6807 8.45307 11.7847 8.43209C11.8888 8.41111 11.9966 8.42169 12.0947 8.46248C12.1928 8.50327 12.2766 8.57245 12.3356 8.66124C12.3946 8.75003 12.426 8.85445 12.426 8.96127C12.426 9.03203 12.4122 9.1021 12.3853 9.16746C12.3584 9.23283 12.3189 9.29222 12.2692 9.34222C12.2195 9.39223 12.1604 9.43188 12.0955 9.4589C12.0305 9.48592 11.9609 9.49978 11.8906 9.4997L11.8919 9.50096ZM9.76526 3.30679H12.1233C12.3266 4.29171 12.508 5.81318 12.6274 7.16902H9.76651V3.30742L9.76526 3.30679ZM6.01053 0.891719H7.99079V1.73117H6.01053V0.892349V0.891719ZM1.87925 3.30742H4.23605V7.16965H1.37449C1.49333 5.81318 1.67472 4.29171 1.87925 3.30679V3.30742ZM2.11068 9.50096C2.03746 9.5061 1.96398 9.49602 1.8948 9.47136C1.82561 9.4467 1.7622 9.40798 1.70851 9.35761C1.65481 9.30724 1.61197 9.24629 1.58265 9.17855C1.55333 9.11081 1.53816 9.03773 1.53807 8.96383C1.53799 8.88994 1.55299 8.81682 1.58215 8.74901C1.61131 8.6812 1.65401 8.62015 1.70759 8.56966C1.76117 8.51916 1.82449 8.48029 1.89362 8.45547C1.96274 8.43065 2.0362 8.4204 2.10943 8.42536C2.24322 8.4365 2.36797 8.49785 2.45895 8.59723C2.54994 8.69662 2.60052 8.82679 2.60068 8.96195C2.60084 9.09711 2.55056 9.2274 2.4598 9.327C2.36905 9.4266 2.24444 9.48824 2.11068 9.4997V9.50096ZM2.83623 8.96127C2.83619 8.89044 2.85001 8.82029 2.87689 8.75484C2.90378 8.68938 2.9432 8.6299 2.99292 8.57978C3.04264 8.52967 3.10167 8.4899 3.16665 8.46276C3.23163 8.43561 3.30129 8.42162 3.37164 8.42158C3.44199 8.42154 3.51166 8.43545 3.57667 8.46252C3.64169 8.48958 3.70077 8.52928 3.75054 8.57934C3.80032 8.62939 3.83981 8.68883 3.86677 8.75425C3.89373 8.81968 3.90763 8.88981 3.90767 8.96064C3.90776 9.10378 3.85136 9.24108 3.75089 9.34235C3.65043 9.44362 3.51412 9.50056 3.37195 9.50065C3.30156 9.50069 3.23185 9.48677 3.1668 9.45969C3.10175 9.4326 3.04263 9.39288 2.99283 9.3428C2.89224 9.24164 2.83569 9.10441 2.83561 8.96127H2.83623ZM3.4198 16.0062L4.03902 14.9262H9.96229L10.5815 16.0062H3.4198ZM10.0936 8.96127C10.0894 8.88784 10.1 8.81429 10.125 8.74517C10.15 8.67604 10.1887 8.61278 10.2389 8.55928C10.289 8.50577 10.3495 8.46316 10.4166 8.43404C10.4837 8.40493 10.556 8.38994 10.6291 8.38998C10.7021 8.39002 10.7744 8.4051 10.8415 8.43429C10.9085 8.46349 10.969 8.50617 11.019 8.55974C11.0691 8.6133 11.1078 8.6766 11.1327 8.74576C11.1576 8.81492 11.1682 8.88847 11.1638 8.9619C11.1545 9.09833 11.094 9.2261 10.9947 9.31939C10.8954 9.41267 10.7646 9.46451 10.6288 9.46443C10.4929 9.46435 10.3622 9.41235 10.263 9.31895C10.1638 9.22555 10.1035 9.09771 10.0943 8.96127H10.0936Z" fill="#1FB588"/>
</svg>
